<svg width="26" height="26" viewBox="0 0 26 26" fill="none" xmlns="http://www.w3.org/2000/svg">
<path d="M14.2862 19.8592C15.5724 19.8592 16.7055 19.6787 17.6855 19.3177C18.6961 18.9266 19.6301 18.3249 20.4876 17.5126L24.3004 21.574C21.9729 24.1913 18.5736 25.5 14.1025 25.5C11.3157 25.5 8.85041 24.9735 6.70671 23.9206C4.56301 22.8375 2.9093 21.3484 1.74558 19.4531C0.581861 17.5578 0 15.4067 0 13C0 10.6233 0.566549 8.48737 1.69965 6.59206C2.86337 4.66667 4.44052 3.1775 6.43109 2.12455C8.4523 1.04152 10.7185 0.5 13.2297 0.5C15.5877 0.5 17.7314 0.99639 19.6608 1.98917C21.5901 2.95186 23.1213 4.36582 24.2544 6.23105C25.4181 8.06618 26 10.2473 26 12.7744L7.71731 16.2491C8.23793 17.4525 9.04947 18.355 10.1519 18.9567C11.285 19.5584 12.6631 19.8592 14.2862 19.8592ZM13.2297 5.82491C11.4228 5.82491 9.95288 6.39651 8.81979 7.53971C7.68669 8.68291 7.08952 10.2623 7.02827 12.278L19.0636 9.97653C18.7267 8.713 18.0377 7.70517 16.9965 6.95307C15.9552 6.20096 14.6996 5.82491 13.2297 5.82491Z" fill="white"/>
</svg>
