<svg width="149" height="18" viewBox="0 0 149 18" fill="none" xmlns="http://www.w3.org/2000/svg">
<path d="M13.44 15.94C12.72 16.3533 11.8467 16.68 10.82 16.92C9.79333 17.16 8.72667 17.28 7.62 17.28C6.12667 17.28 4.85333 17.1 3.8 16.74C2.76 16.38 1.97333 15.88 1.44 15.24C0.92 14.6 0.66 13.86 0.66 13.02C0.66 12.2867 0.86 11.64 1.26 11.08C1.66 10.52 2.21333 10.0867 2.92 9.78C2.37333 9.5 1.95333 9.11333 1.66 8.62C1.38 8.11333 1.24 7.56 1.24 6.96C1.24 6.18667 1.48 5.48 1.96 4.84C2.45333 4.2 3.2 3.68667 4.2 3.3C5.2 2.91333 6.43333 2.72 7.9 2.72C8.82 2.72 9.72667 2.80667 10.62 2.98C11.5133 3.15333 12.3 3.38667 12.98 3.68L11.9 6.64C10.66 6.09333 9.38 5.82 8.06 5.82C7.11333 5.82 6.40667 5.94667 5.94 6.2C5.47333 6.44 5.24 6.78 5.24 7.22C5.24 8.02 5.82 8.42 6.98 8.42H10.94V11.44H6.72C6.04 11.44 5.52667 11.5533 5.18 11.78C4.83333 11.9933 4.66 12.3133 4.66 12.74C4.66 13.1933 4.91333 13.5467 5.42 13.8C5.92667 14.0533 6.71333 14.18 7.78 14.18C8.54 14.18 9.32 14.08 10.12 13.88C10.9333 13.6667 11.64 13.38 12.24 13.02L13.44 15.94ZM26.0384 6.16L21.5584 17H17.6384L13.1784 6.16H17.0784L19.6784 12.78L22.4184 6.16H26.0384ZM32.5278 14.28C33.0478 14.28 33.4945 14.2067 33.8678 14.06C34.2545 13.9133 34.6411 13.6733 35.0278 13.34L37.0078 15.42C35.9811 16.5933 34.4478 17.18 32.4078 17.18C31.1411 17.18 30.0278 16.94 29.0678 16.46C28.1078 15.98 27.3611 15.3133 26.8278 14.46C26.3078 13.6067 26.0478 12.64 26.0478 11.56C26.0478 10.4933 26.3078 9.54 26.8278 8.7C27.3478 7.84667 28.0611 7.18 28.9678 6.7C29.8878 6.22 30.9145 5.98 32.0478 5.98C33.1011 5.98 34.0611 6.2 34.9278 6.64C35.8078 7.06667 36.5078 7.7 37.0278 8.54C37.5478 9.36667 37.8078 10.3533 37.8078 11.5L30.0678 12.98C30.4811 13.8467 31.3011 14.28 32.5278 14.28ZM32.0678 8.68C31.4145 8.68 30.8811 8.88667 30.4678 9.3C30.0545 9.7 29.8211 10.28 29.7678 11.04L34.1678 10.18C34.0345 9.72667 33.7811 9.36667 33.4078 9.1C33.0345 8.82 32.5878 8.68 32.0678 8.68ZM46.6198 5.98C47.9665 5.98 49.0465 6.38 49.8598 7.18C50.6865 7.98 51.0998 9.18667 51.0998 10.8V17H47.2998V11.42C47.2998 9.94 46.7065 9.2 45.5198 9.2C44.8665 9.2 44.3398 9.41333 43.9398 9.84C43.5532 10.2667 43.3598 10.9067 43.3598 11.76V17H39.5598V6.16H43.1798V7.34C43.6065 6.9 44.1132 6.56667 44.6998 6.34C45.2865 6.1 45.9265 5.98 46.6198 5.98ZM60.4656 16.56C60.1456 16.76 59.7523 16.9133 59.2856 17.02C58.8323 17.1267 58.3456 17.18 57.8256 17.18C56.4123 17.18 55.3256 16.8333 54.5656 16.14C53.819 15.4467 53.4456 14.4133 53.4456 13.04V3.74H57.2456V6.56H59.7056V9.4H57.2456V13C57.2456 13.4 57.3456 13.7067 57.5456 13.92C57.7456 14.1333 58.019 14.24 58.3656 14.24C58.8056 14.24 59.1923 14.1267 59.5256 13.9L60.4656 16.56ZM77.3034 9.7H80.8034V17H78.0634V16.14C77.1168 16.9 75.8634 17.28 74.3034 17.28C72.9968 17.28 71.8034 17 70.7234 16.44C69.6434 15.88 68.7834 15.0667 68.1434 14C67.5168 12.92 67.2034 11.6333 67.2034 10.14C67.2034 8.7 67.5368 7.42 68.2034 6.3C68.8701 5.16667 69.7968 4.28667 70.9834 3.66C72.1701 3.03333 73.5101 2.72 75.0034 2.72C76.3101 2.72 77.4834 2.94 78.5234 3.38C79.5634 3.82 80.4301 4.45333 81.1234 5.28L78.6034 7.56C77.6568 6.52 76.5234 6 75.2034 6C73.9901 6 73.0168 6.37333 72.2834 7.12C71.5634 7.85333 71.2034 8.85333 71.2034 10.12C71.2034 11.4 71.5434 12.38 72.2234 13.06C72.9034 13.74 73.7634 14.08 74.8034 14.08C75.8034 14.08 76.6368 13.8133 77.3034 13.28V9.7ZM94.5341 6.16V17H90.9141V15.84C90.5141 16.28 90.0341 16.6133 89.4741 16.84C88.9141 17.0667 88.3207 17.18 87.6941 17.18C86.2941 17.18 85.1741 16.7667 84.3341 15.94C83.5074 15.1133 83.0941 13.8733 83.0941 12.22V6.16H86.8941V11.6C86.8941 12.4133 87.0474 13.0067 87.3541 13.38C87.6607 13.7533 88.1074 13.94 88.6941 13.94C89.2941 13.94 89.7807 13.7333 90.1541 13.32C90.5407 12.8933 90.7341 12.2467 90.7341 11.38V6.16H94.5341ZM96.9817 6.16H100.782V17H96.9817V6.16ZM98.8817 4.96C98.1884 4.96 97.6284 4.76667 97.2017 4.38C96.7751 3.99333 96.5617 3.51333 96.5617 2.94C96.5617 2.36667 96.7751 1.88667 97.2017 1.5C97.6284 1.11333 98.1884 0.92 98.8817 0.92C99.5751 0.92 100.135 1.10667 100.562 1.48C100.988 1.84 101.202 2.30667 101.202 2.88C101.202 3.48 100.988 3.98 100.562 4.38C100.135 4.76667 99.5751 4.96 98.8817 4.96ZM114.771 2.16V17H111.151V15.92C110.445 16.76 109.385 17.18 107.971 17.18C106.985 17.18 106.085 16.9533 105.271 16.5C104.458 16.0333 103.811 15.3733 103.331 14.52C102.865 13.6667 102.631 12.68 102.631 11.56C102.631 10.44 102.865 9.46 103.331 8.62C103.811 7.76667 104.458 7.11333 105.271 6.66C106.085 6.20667 106.985 5.98 107.971 5.98C109.265 5.98 110.265 6.35333 110.971 7.1V2.16H114.771ZM108.771 14.16C109.425 14.16 109.965 13.9333 110.391 13.48C110.818 13.0133 111.031 12.3733 111.031 11.56C111.031 10.76 110.818 10.1333 110.391 9.68C109.978 9.22667 109.438 9 108.771 9C108.105 9 107.558 9.22667 107.131 9.68C106.705 10.1333 106.491 10.76 106.491 11.56C106.491 12.3733 106.705 13.0133 107.131 13.48C107.558 13.9333 108.105 14.16 108.771 14.16ZM123.016 14.28C123.536 14.28 123.983 14.2067 124.356 14.06C124.743 13.9133 125.129 13.6733 125.516 13.34L127.496 15.42C126.469 16.5933 124.936 17.18 122.896 17.18C121.629 17.18 120.516 16.94 119.556 16.46C118.596 15.98 117.849 15.3133 117.316 14.46C116.796 13.6067 116.536 12.64 116.536 11.56C116.536 10.4933 116.796 9.54 117.316 8.7C117.836 7.84667 118.549 7.18 119.456 6.7C120.376 6.22 121.403 5.98 122.536 5.98C123.589 5.98 124.549 6.2 125.416 6.64C126.296 7.06667 126.996 7.7 127.516 8.54C128.036 9.36667 128.296 10.3533 128.296 11.5L120.556 12.98C120.969 13.8467 121.789 14.28 123.016 14.28ZM122.556 8.68C121.903 8.68 121.369 8.88667 120.956 9.3C120.543 9.7 120.309 10.28 120.256 11.04L124.656 10.18C124.523 9.72667 124.269 9.36667 123.896 9.1C123.523 8.82 123.076 8.68 122.556 8.68ZM133.668 7.46C134.055 6.96667 134.555 6.6 135.168 6.36C135.795 6.10667 136.508 5.98 137.308 5.98V9.4C136.961 9.36 136.675 9.34 136.448 9.34C135.635 9.34 134.995 9.56 134.528 10C134.075 10.44 133.848 11.1133 133.848 12.02V17H130.048V6.16H133.668V7.46ZM142.836 17.18C141.929 17.18 141.036 17.08 140.156 16.88C139.276 16.6667 138.569 16.3933 138.036 16.06L139.176 13.46C139.669 13.7667 140.256 14.0133 140.936 14.2C141.616 14.3733 142.289 14.46 142.956 14.46C143.569 14.46 144.002 14.4 144.256 14.28C144.522 14.1467 144.656 13.96 144.656 13.72C144.656 13.48 144.496 13.3133 144.176 13.22C143.869 13.1133 143.376 13.0133 142.696 12.92C141.829 12.8133 141.089 12.6733 140.476 12.5C139.876 12.3267 139.356 12.0067 138.916 11.54C138.476 11.0733 138.256 10.42 138.256 9.58C138.256 8.88667 138.462 8.27333 138.876 7.74C139.289 7.19333 139.889 6.76667 140.676 6.46C141.476 6.14 142.429 5.98 143.536 5.98C144.322 5.98 145.102 6.06 145.876 6.22C146.649 6.38 147.296 6.60667 147.816 6.9L146.676 9.48C145.716 8.94667 144.676 8.68 143.556 8.68C142.956 8.68 142.516 8.75333 142.236 8.9C141.956 9.03333 141.816 9.21333 141.816 9.44C141.816 9.69333 141.969 9.87333 142.276 9.98C142.582 10.0733 143.089 10.1733 143.796 10.28C144.689 10.4133 145.429 10.5667 146.016 10.74C146.602 10.9133 147.109 11.2333 147.536 11.7C147.976 12.1533 148.196 12.7933 148.196 13.62C148.196 14.3 147.989 14.9133 147.576 15.46C147.162 15.9933 146.549 16.4133 145.736 16.72C144.936 17.0267 143.969 17.18 142.836 17.18Z" fill="#2A2F4F"/>
</svg>
