<svg width="20" height="20" viewBox="0 0 20 20" fill="none" xmlns="http://www.w3.org/2000/svg">
<path d="M9.88667 18.2458L9.8867 18.2458L9.8805 18.2406C9.5249 17.9429 7.75845 16.422 6.08737 14.482C5.25171 13.5118 4.45413 12.453 3.86873 11.4034C3.27773 10.3438 2.9373 9.35392 2.9373 8.50638C2.9373 4.62382 6.08476 1.47637 9.96732 1.47637C13.8499 1.47637 16.9973 4.62382 16.9973 8.50638C16.9973 9.35394 16.6569 10.3438 16.0659 11.4035C15.4806 12.4532 14.6831 13.5121 13.8475 14.4825C12.1769 16.4228 10.4113 17.9445 10.0548 18.2457L10.0543 18.2461L9.97013 18.3174L9.88667 18.2458ZM9.96812 1.74782L9.96652 1.74782C6.23608 1.75204 3.21302 4.77511 3.2088 8.50555V8.50634C3.2088 9.31156 3.51525 10.1662 3.94179 10.9807C4.37436 11.8066 4.96463 12.6549 5.60728 13.4635C6.89295 15.081 8.43767 16.601 9.49983 17.554L9.96741 17.9736L10.4349 17.5539C11.4971 16.6005 13.0418 15.0798 14.3274 13.462C14.97 12.6533 15.5603 11.805 15.9928 10.9793C16.4193 10.1652 16.7258 9.31091 16.7258 8.50634L16.7258 8.50555C16.7216 4.77511 13.6986 1.75209 9.96812 1.74782Z" stroke="#AAACB9" stroke-width="1.4"/>
<path d="M9.96743 11.5705C8.27517 11.5705 6.90332 10.1986 6.90332 8.50637C6.90332 6.81411 8.27517 5.44226 9.96743 5.44226C11.6597 5.44226 13.0315 6.81411 13.0315 8.50637C13.0315 10.1986 11.6597 11.5705 9.96743 11.5705ZM9.96743 6.97428C9.1213 6.97428 8.43538 7.66021 8.43538 8.50634C8.43538 9.35247 9.1213 10.0384 9.96743 10.0384C10.8136 10.0384 11.4995 9.35247 11.4995 8.50634C11.4995 7.66021 10.8136 6.97428 9.96743 6.97428Z" fill="#AAACB9"/>
</svg>
