<svg width="20" height="20" viewBox="0 0 20 20" fill="none" xmlns="http://www.w3.org/2000/svg">
<path d="M18.4666 13.7113C18.4666 13.7116 18.4666 13.7118 18.4666 13.7121C18.4654 14.5288 18.1378 15.3129 17.5536 15.8922C16.9691 16.4719 16.1754 16.799 15.3463 16.8H4.65353C3.82442 16.799 3.03071 16.4719 2.4462 15.8922C1.86198 15.3128 1.53435 14.5285 1.53325 13.7117V6.2883C1.53435 5.47146 1.86198 4.68719 2.4462 4.1078C3.03062 3.5282 3.82418 3.20108 4.65315 3.2H15.3467C16.1757 3.20108 16.9692 3.5282 17.5536 4.1078L18.0466 3.61077L19.1666 13.7121L18.4666 13.7113ZM18.4666 13.7113V6.28872M18.4666 13.7113V6.28872M18.4666 6.28872L18.4666 6.28788L18.4666 6.28872ZM4.6527 3.31515L4.65133 3.31515C4.05551 3.31632 3.47318 3.49425 2.97926 3.82674C2.48528 4.15928 2.10203 4.63144 1.87979 5.18314L1.67291 5.69668L2.125 6.01628L7.93106 10.1209C8.48851 10.6494 9.22947 10.9443 9.99992 10.9443C10.7704 10.9443 11.5113 10.6494 12.0688 10.1209L17.8748 6.01628L18.3269 5.69668L18.12 5.18314C17.8978 4.63144 17.5146 4.15928 17.0206 3.82674C16.5267 3.49425 15.9443 3.31632 15.3485 3.31515H15.3471L4.6527 3.31515ZM2.744 6.83829L1.66103 6.13048V7.42424V13.7121C1.66103 14.5024 1.97765 15.2592 2.53933 15.8162C3.10081 16.373 3.86112 16.6848 4.6527 16.6848H15.3471C16.1387 16.6848 16.899 16.373 17.4605 15.8162C18.0222 15.2592 18.3388 14.5024 18.3388 13.7121V7.42424V6.13048L17.2558 6.83829L12.3181 10.0656L12.2589 10.1042L12.2087 10.1539C11.6234 10.7329 10.8292 11.0591 9.99992 11.0591C9.17068 11.0591 8.37644 10.7329 7.79109 10.1539L7.74089 10.1042L7.68178 10.0656L2.744 6.83829Z" stroke="#AAACB9" stroke-width="1.4"/>
</svg>
