<svg width="20" height="20" viewBox="0 0 20 20" fill="none" xmlns="http://www.w3.org/2000/svg">
<path d="M12.1933 1.53342L12.2035 1.53382L12.2137 1.53391C13.7954 1.54906 15.1334 2.91284 15.1334 4.65343V15.3472C15.1334 17.0977 13.781 18.4667 12.1876 18.4667H7.81258C6.21921 18.4667 4.86675 17.0977 4.86675 15.3472V4.65267C4.86675 2.91268 6.20482 1.54845 7.7862 1.53392L7.79656 1.53382L7.80691 1.53342C7.80204 1.53361 8.17722 1.53356 8.71689 1.53349C9.08979 1.53344 9.54123 1.53337 10.0001 1.53337C10.459 1.53337 10.9104 1.53344 11.2834 1.53349C11.823 1.53356 12.1981 1.53361 12.1933 1.53342ZM8.01492 2.10472L7.778 1.60794L7.23935 1.72097C5.9 2.002 4.92508 3.22688 4.92508 4.65343V15.3472C4.92508 16.9663 6.1896 18.3389 7.81258 18.3389H12.1876C13.8106 18.3389 15.0751 16.9663 15.0751 15.3472V4.65343C15.0751 3.22728 14.1005 2.00104 12.7603 1.72086L12.222 1.60831L11.9852 2.10472L11.4796 3.16487C11.4796 3.16496 11.4795 3.16506 11.4795 3.16515C11.4728 3.17895 11.4653 3.18535 11.4614 3.18784C11.4597 3.18897 11.4585 3.18941 11.4582 3.18953H8.54189C8.54188 3.18953 8.54186 3.18953 8.54185 3.18952C8.54153 3.18943 8.54026 3.189 8.53826 3.1877C8.53438 3.18519 8.52731 3.1791 8.52123 3.16632L8.52097 3.16577L8.01492 2.10472ZM7.3831 2.40605L7.88914 3.4671L12.6171 2.40605C13.6182 2.61535 14.3751 3.54349 14.3751 4.65343V15.3472C14.3751 16.6107 13.3936 17.6389 12.1876 17.6389H7.81258C6.60654 17.6389 5.62508 16.6107 5.62508 15.3472V4.65343C5.62508 3.54349 6.38196 2.61612 7.3831 2.40605Z" stroke="#AAACB9" stroke-width="1.4"/>
</svg>
