<svg width="20" height="20" viewBox="0 0 20 20" fill="none" xmlns="http://www.w3.org/2000/svg">
<path d="M8.45651 8.72632L8.72439 8.0796L8.45651 8.72632C9.1935 9.03159 10.0045 9.11146 10.7869 8.95584C11.5693 8.80021 12.2879 8.41607 12.852 7.852C13.4161 7.28793 13.8002 6.56926 13.9558 5.78687C14.1115 5.00448 14.0316 4.19351 13.7263 3.45651C13.421 2.71952 12.9041 2.0896 12.2408 1.64641C11.5775 1.20322 10.7977 0.966669 10 0.966669C8.93029 0.966669 7.9044 1.39161 7.148 2.148C6.39161 2.9044 5.96667 3.9303 5.96667 5C5.96667 5.79772 6.20322 6.57752 6.64641 7.2408C7.08959 7.90408 7.71951 8.42104 8.45651 8.72632ZM12.389 8.57532C11.682 9.04768 10.8509 9.29986 10.0007 9.3H10.0006C8.8604 9.29885 7.76718 8.84538 6.9609 8.0391C6.1547 7.23289 5.70123 6.1398 5.7 4.99966C5.70007 4.14932 5.95225 3.31809 6.42468 2.61105C6.89717 1.90392 7.56874 1.35278 8.35446 1.02732C9.14018 0.701863 10.0048 0.616709 10.8389 0.782625C11.673 0.948542 12.4392 1.35808 13.0406 1.95944C13.6419 2.56081 14.0515 3.327 14.2174 4.16111C14.3833 4.99523 14.2981 5.85982 13.9727 6.64554C13.6472 7.43126 13.0961 8.10283 12.389 8.57532Z" stroke="#AAACB9" stroke-width="1.4"/>
<path d="M10 11.6667C8.01155 11.6689 6.10518 12.4598 4.69914 13.8658C3.29309 15.2719 2.50221 17.1782 2.5 19.1667C2.5 19.3877 2.5878 19.5997 2.74408 19.7559C2.90036 19.9122 3.11232 20 3.33333 20C3.55435 20 3.76631 19.9122 3.92259 19.7559C4.07887 19.5997 4.16667 19.3877 4.16667 19.1667C4.16667 17.6196 4.78125 16.1359 5.87521 15.0419C6.96917 13.9479 8.4529 13.3334 10 13.3334C11.5471 13.3334 13.0308 13.9479 14.1248 15.0419C15.2188 16.1359 15.8333 17.6196 15.8333 19.1667C15.8333 19.3877 15.9211 19.5997 16.0774 19.7559C16.2337 19.9122 16.4457 20 16.6667 20C16.8877 20 17.0996 19.9122 17.2559 19.7559C17.4122 19.5997 17.5 19.3877 17.5 19.1667C17.4978 17.1782 16.7069 15.2719 15.3009 13.8658C13.8948 12.4598 11.9884 11.6689 10 11.6667Z" fill="#AAACB9"/>
</svg>
