<svg width="18" height="18" viewBox="0 0 18 18" fill="none" xmlns="http://www.w3.org/2000/svg">
<path d="M9 2.44133C11.136 2.44133 11.3893 2.44933 12.2327 2.488C13.1047 2.528 14.0027 2.72667 14.638 3.362C15.2793 4.00333 15.472 4.89267 15.512 5.76733C15.5507 6.61067 15.5587 6.864 15.5587 9C15.5587 11.136 15.5507 11.3893 15.512 12.2327C15.4727 13.1 15.2693 14.0067 14.638 14.638C13.9967 15.2793 13.108 15.472 12.2327 15.512C11.3893 15.5507 11.136 15.5587 9 15.5587C6.864 15.5587 6.61067 15.5507 5.76733 15.512C4.90667 15.4727 3.988 15.2647 3.362 14.638C2.724 14 2.528 13.102 2.488 12.2327C2.44933 11.3893 2.44133 11.136 2.44133 9C2.44133 6.864 2.44933 6.61067 2.488 5.76733C2.52733 4.90333 2.73267 3.99133 3.362 3.362C4.002 2.722 4.89467 2.528 5.76733 2.488C6.61067 2.44933 6.864 2.44133 9 2.44133ZM9 1C6.82733 1 6.55467 1.00933 5.70133 1.048C4.46467 1.10467 3.23667 1.44867 2.34267 2.34267C1.44533 3.24 1.10467 4.46533 1.048 5.70133C1.00933 6.55467 1 6.82733 1 9C1 11.1727 1.00933 11.4453 1.048 12.2987C1.10467 13.534 1.45 14.7653 2.34267 15.6573C3.23933 16.554 4.46667 16.8953 5.70133 16.952C6.55467 16.9907 6.82733 17 9 17C11.1727 17 11.4453 16.9907 12.2987 16.952C13.5347 16.8953 14.764 16.5507 15.6573 15.6573C16.5553 14.7593 16.8953 13.5347 16.952 12.2987C16.9907 11.4453 17 11.1727 17 9C17 6.82733 16.9907 6.55467 16.952 5.70133C16.8953 4.46467 16.5507 3.236 15.6573 2.34267C14.762 1.44733 13.5313 1.104 12.2987 1.048C11.4453 1.00933 11.1727 1 9 1Z" fill="white"/>
<path d="M9.00009 4.892C6.73142 4.892 4.89209 6.73133 4.89209 9C4.89209 11.2687 6.73142 13.108 9.00009 13.108C11.2688 13.108 13.1081 11.2687 13.1081 9C13.1081 6.73133 11.2688 4.892 9.00009 4.892ZM9.00009 11.6667C7.52742 11.6667 6.33342 10.4727 6.33342 9C6.33342 7.52733 7.52742 6.33333 9.00009 6.33333C10.4728 6.33333 11.6668 7.52733 11.6668 9C11.6668 10.4727 10.4728 11.6667 9.00009 11.6667Z" fill="white"/>
<path d="M13.2705 5.68933C13.8007 5.68933 14.2305 5.25953 14.2305 4.72933C14.2305 4.19914 13.8007 3.76933 13.2705 3.76933C12.7404 3.76933 12.3105 4.19914 12.3105 4.72933C12.3105 5.25953 12.7404 5.68933 13.2705 5.68933Z" fill="white"/>
</svg>
